# xmcd CD database file
#
# Track frame offsets:
#	150
#	17745
#	36072
#	56010
#	76387
#	95232
#	112080
#	131305
#	152977
#	175835
#	198075
#	218557
#	236965
#	256520
#	275645
#	293625
#	307785
#
# Disc length: 4338 seconds
#
# Revision: 13
# Processed by: cddbd v1.5.2PL0 Copyright (c) Steve Scherf et al.
# Submitted via: CDex 1.70beta3
#
DISCID=e710f011
DTITLE=Do As Infinity - Do The Best
DYEAR=2002
DGENRE=JPop
TTITLE0=SUMMER DAYS
TTITLE1=遠くまで
TTITLE2=陽のあたる坂道
TTITLE3=Desire
TTITLE4=Heart
TTITLE5=遠雷
TTITLE6=Week!
TTITLE7=new world
TTITLE8=Yesterday and Today
TTITLE9=Oasis
TTITLE10=135
TTITLE11=深い森
TTITLE12=nice and easy
TTITLE13=冒険者たち (GREAT TOUR BAND version)
TTITLE14=Tangerine Dream (GREAT TOUR BAND version)
TTITLE15=Welcome! (GREAT TOUR BAND version)
TTITLE16=We are. (GREAT TOUR BAND version)
EXTD=YEAR: 2002
EXTT0=
EXTT1=
EXTT2=
EXTT3=
EXTT4=
EXTT5=
EXTT6=
EXTT7=
EXTT8=
EXTT9=
EXTT10=
EXTT11=
EXTT12=
EXTT13=
EXTT14=
EXTT15=
EXTT16=
PLAYORDER=
